<?xml version="1.0" standalone="no"?>
<!DOCTYPE svg PUBLIC "-//W3C//DTD SVG 20010904//EN"
 "http://www.w3.org/TR/2001/REC-SVG-20010904/DTD/svg10.dtd">
<svg version="1.0" xmlns="http://www.w3.org/2000/svg"
 width="320.000000pt" height="320.000000pt" viewBox="0 0 320.000000 320.000000"
 preserveAspectRatio="xMidYMid meet">

<g transform="translate(0.000000,320.000000) scale(0.100000,-0.100000)"
fill="#000000" stroke="none">
<path d="M0 1600 l0 -1600 1600 0 1600 0 0 1600 0 1600 -1600 0 -1600 0 0
-1600z m2737 280 c1 -432 -1 -813 -4 -847 -5 -60 -7 -63 -32 -63 l-26 0 0 817
0 818 -734 2 c-695 2 -735 3 -738 20 -7 45 -33 43 769 41 l763 -3 2 -785z
m-1667 654 l0 -115 26 20 c37 29 105 28 138 -1 23 -21 26 -31 27 -108 2 -121
8 -152 30 -157 43 -12 14 -23 -57 -23 l-77 0 27 25 c25 23 26 29 26 122 0 116
-12 143 -64 143 -57 0 -70 -26 -74 -145 -4 -96 -2 -105 17 -117 36 -22 24 -28
-56 -28 l-78 1 28 20 27 21 0 204 c0 193 -1 205 -20 222 l-21 17 23 7 c13 3
35 6 51 7 l27 1 0 -116z m-123 36 l3 -65 -21 42 c-24 50 -67 73 -134 73 l-46
0 3 -208 c3 -219 8 -242 49 -242 11 0 19 -4 19 -10 0 -6 -42 -10 -105 -10 -63
0 -105 4 -105 10 0 6 6 10 14 10 8 0 22 7 30 16 14 13 16 48 16 225 l0 209
-40 0 c-65 0 -104 -22 -128 -71 l-21 -44 -1 68 0 67 233 -2 232 -3 2 -65z
m619 -144 c34 -34 45 -75 22 -77 -7 0 -51 -1 -98 -2 l-85 -2 -3 -31 c-5 -46
22 -101 60 -124 46 -28 74 -25 110 10 34 35 39 35 27 3 -13 -36 -52 -54 -114
-54 -95 0 -145 52 -145 151 0 95 60 160 149 160 36 0 49 -6 77 -34z m-1066
-921 l0 -865 255 0 255 0 0 -30 0 -30 -285 0 -285 0 0 895 0 895 30 0 30 0 0
-865z m806 565 c54 0 83 4 79 10 -3 6 -2 10 4 10 5 0 13 -4 16 -10 9 -15 162
-13 169 3 5 10 7 10 12 0 4 -9 32 -13 89 -13 57 0 85 4 89 13 5 10 7 10 12 0
4 -9 31 -13 84 -13 53 0 80 4 84 13 5 10 7 10 12 0 4 -9 33 -13 94 -13 61 0
90 4 94 13 5 10 7 10 12 0 4 -9 32 -13 89 -13 57 0 85 4 89 13 5 10 7 10 12 0
4 -9 33 -13 94 -13 61 0 90 4 93 13 3 6 6 -17 6 -53 0 -36 -3 -70 -7 -75 -4
-6 -38 -20 -75 -33 -38 -12 -75 -28 -82 -36 -11 -11 -14 -81 -15 -375 0 -198
-3 -367 -6 -376 -5 -11 -21 -15 -60 -15 l-54 0 -2 382 -3 382 -33 23 c-51 34
-112 39 -205 17 -66 -16 -81 -23 -93 -46 -11 -21 -14 -89 -14 -325 0 -352 -1
-349 94 -399 l59 -32 -214 0 -214 -1 50 23 c66 31 92 57 105 108 17 60 10 595
-8 626 -29 51 -160 71 -251 38 -24 -9 -47 -14 -51 -11 -5 3 -16 -5 -24 -17
-14 -19 -16 -70 -16 -364 0 -188 -3 -356 -6 -373 -6 -30 -8 -31 -60 -31 l-54
0 0 180 0 180 -175 0 -175 0 0 -174 c0 -193 3 -186 -71 -186 l-39 0 -1 173
c-1 94 -1 258 -1 362 0 208 -3 221 -59 250 -17 9 -49 19 -72 23 l-42 7 -3 78
c-2 49 1 77 8 77 5 0 10 -4 10 -10 0 -15 137 -13 144 3 5 10 7 10 12 0 4 -9
33 -13 94 -13 61 0 90 4 94 13 5 10 7 10 12 0 4 -9 31 -13 84 -13 65 0 79 3
85 18 8 16 8 16 12 0 4 -15 17 -18 89 -18z m299 -1040 c0 -18 -6 -26 -23 -28
-13 -2 -25 3 -28 12 -10 26 4 48 28 44 17 -2 23 -10 23 -28z m-115 -29 c0 -27
3 -56 6 -65 3 -9 2 -16 -4 -16 -6 0 -13 13 -17 30 -9 43 -54 76 -114 84 -29 4
-56 4 -61 1 -6 -4 -9 -88 -7 -209 2 -185 4 -206 21 -225 11 -12 25 -21 33 -21
7 0 13 -3 13 -7 0 -5 -47 -9 -105 -11 -61 -2 -105 1 -105 6 0 6 11 13 25 16
38 10 46 60 43 268 l-3 183 -55 -3 c-77 -5 -95 -18 -126 -97 -7 -15 -9 -10
-12 24 -2 25 -1 55 3 68 l5 23 230 0 230 0 0 -49z m120 -261 c0 -129 2 -141
20 -152 11 -7 20 -15 20 -18 0 -3 -32 -6 -70 -7 -72 -3 -84 3 -50 25 18 11 20
23 20 127 0 106 -2 115 -22 129 -24 17 -17 22 37 29 17 2 33 5 38 6 4 0 7 -62
7 -139z m170 109 c0 -19 1 -19 31 3 41 31 100 30 133 -1 l25 -23 26 20 c37 30
77 36 119 18 47 -20 56 -46 56 -166 0 -88 2 -100 20 -113 19 -13 19 -15 3 -19
-35 -8 -123 -9 -123 -1 0 4 9 14 20 21 19 12 20 21 18 124 -3 106 -4 112 -29
130 -20 15 -30 17 -53 9 -38 -15 -56 -65 -56 -156 0 -82 11 -114 38 -116 31
-2 -42 -17 -90 -18 -48 -1 -65 12 -29 22 14 3 21 17 26 52 10 63 1 181 -15
200 -21 25 -75 19 -99 -11 -18 -23 -21 -41 -21 -125 0 -88 2 -100 20 -111 11
-7 20 -15 20 -18 0 -8 -129 -12 -141 -4 -6 4 -1 11 13 18 22 11 23 17 26 128
2 109 1 118 -18 130 -30 19 -25 27 23 30 52 4 57 2 57 -23z m654 17 c39 -16
66 -51 66 -83 0 -21 -4 -22 -97 -25 l-98 -3 1 -35 c1 -48 30 -105 60 -119 48
-22 90 -14 118 22 26 32 35 23 16 -14 -28 -51 -133 -65 -191 -26 -102 68 -87
232 26 283 39 17 58 17 99 0z m279 2 c13 1 17 -8 17 -39 0 -24 -4 -38 -10 -34
-5 3 -10 11 -10 17 0 22 -33 48 -61 48 -22 0 -30 -6 -35 -25 -9 -38 0 -50 58
-81 64 -35 91 -79 77 -127 -14 -51 -45 -70 -99 -62 -25 3 -52 7 -62 8 -12 1
-17 13 -20 44 -4 51 2 54 21 13 7 -17 24 -38 38 -47 23 -15 28 -15 52 -2 43
24 36 66 -19 105 -78 56 -90 71 -90 107 0 55 43 92 95 81 17 -3 38 -6 48 -6z"/>
<path d="M1435 2425 c-14 -13 -25 -33 -25 -45 0 -18 6 -20 65 -20 61 0 65 1
65 23 0 29 -34 67 -61 67 -11 0 -31 -11 -44 -25z"/>
<path d="M2498 2053 c7 -3 16 -2 19 1 4 3 -2 6 -13 5 -11 0 -14 -3 -6 -6z"/>
<path d="M735 2029 l-60 -6 73 -1 c39 -1 72 0 72 2 0 9 -29 11 -85 5z"/>
<path d="M1470 2030 l-65 -7 85 -1 c58 -1 80 1 70 8 -8 5 -17 9 -20 8 -3 -1
-34 -4 -70 -8z"/>
<path d="M1609 2029 c-14 -4 13 -7 60 -8 46 -1 82 1 80 4 -8 8 -115 11 -140 4z"/>
<path d="M1990 2029 c-16 -4 6 -7 59 -8 46 -1 81 2 78 6 -10 9 -107 11 -137 2z"/>
<path d="M2435 2030 l-80 -6 83 -2 c49 -1 82 2 82 8 0 6 -1 9 -2 8 -2 -1 -39
-5 -83 -8z"/>
<path d="M888 2023 c23 -2 61 -2 85 0 23 2 4 4 -43 4 -47 0 -66 -2 -42 -4z"/>
<path d="M1078 2023 c23 -2 61 -2 85 0 23 2 4 4 -43 4 -47 0 -66 -2 -42 -4z"/>
<path d="M1268 2023 c23 -2 59 -2 80 0 20 2 1 4 -43 4 -44 0 -61 -2 -37 -4z"/>
<path d="M1818 2023 c23 -2 61 -2 85 0 23 2 4 4 -43 4 -47 0 -66 -2 -42 -4z"/>
<path d="M2203 2023 c26 -2 67 -2 90 0 23 2 2 3 -48 3 -49 0 -68 -1 -42 -3z"/>
<path d="M1030 1911 c-25 -9 -52 -15 -59 -13 -8 3 -11 0 -7 -7 4 -6 2 -11 -4
-11 -7 0 -10 -46 -8 -147 l3 -148 173 -3 172 -2 0 143 c0 125 -2 146 -18 160
-53 48 -169 61 -252 28z"/>
<path d="M2331 834 c-12 -15 -21 -35 -21 -46 0 -17 6 -19 68 -16 64 3 67 4 64
27 -7 61 -74 82 -111 35z"/>
</g>
</svg>
